#!OML:ASF I:\golf\golf\golf 2\Subject 1\2002-09-07\Subject1.ASF
:FULLY-SPECIFIED
:DEGREES
501
root -11.1566 18.0698 6.1944 -155.513 75.376 -172.706
lowerback 3.05601 2.31176 0.669632
upperback 3.66999 3.2223 5.03025
thorax 1.81284 1.64534 4.77161
lowerneck -12.1066 1.65896 5.78094
upperneck 38.2194 4.69987 -3.90699
head 15.7645 2.96752 -1.74408
rclavicle -3.49861e-014 -2.06736e-014
rhumerus -8.53907 9.17721 -100.279
rradius 31.6563
rwrist -42.7461
rhand -27.7451 -16.21
rfingers 7.12502
rthumb -1.13977 -46.1867
lclavicle -3.49861e-014 -2.06736e-014
lhumerus -12.0212 -44.7463 109.364
lradius 35.1094
lwrist 49.5995
lhand -5.54537 59.4575
lfingers 7.12502
lthumb -159.731 268.42
rfemur -23.4645 -4.62771 13.3674
rtibia 22.106
rfoot -7.98058 -17.0602
rtoes -0.306495
lfemur -29.763 0.910925 -11.8491
ltibia 20.8058
lfoot -7.83562 -13.1498
ltoes -13.2842
502
root -11.1558 18.0667 6.19717 -155.343 75.3612 -172.546
lowerback 3.05516 2.30269 0.730575
upperback 3.65098 3.21085 5.00538
thorax 1.79905 1.64099 4.71074
lowerneck -12.0879 1.68923 5.78149
upperneck 38.1804 4.72083 -3.86005
head 15.7403 2.98064 -1.72066
rclavicle 3.18055e-015 6.36111e-015
rhumerus -8.57819 9.12464 -100.337
rradius 31.6737
rwrist -42.6579
rhand -27.6254 -16.2167
rfingers 7.12502
rthumb -1.02413 -46.1939
lclavicle 3.18055e-015 6.36111e-015
lhumerus -12.0533 -44.8057 109.3
lradius 35.1323
lwrist 49.6597
lhand -5.49428 59.5043
lfingers 7.12502
lthumb -159.682 268.461
rfemur -23.5105 -4.6878 13.4377
rtibia 22.148
rfoot -7.88019 -16.9901
rtoes -0.460319
lfemur -29.7923 0.953987 -11.8024
ltibia 20.8204
lfoot -7.86094 -13.1877
ltoes -13.2262
503
root -11.1551 18.0641 6.19847 -155.468 75.3772 -172.686
lowerback 3.02605 2.29276 0.692911
upperback 3.64529 3.19498 4.98899
thorax 1.80956 1.63173 4.71639
lowerneck -12.0999 1.73176 5.76915
upperneck 38.1517 4.77627 -3.84802
head 15.7321 3.00136 -1.70388
rclavicle 5.56597e-015 6.36111e-014
rhumerus -8.63849 9.19038 -100.343
rradius 31.7354
rwrist -42.7053
rhand -27.7229 -16.2434
rfingers 7.12502
rthumb -1.11832 -46.2202
lclavicle 5.56597e-015 6.36111e-014
lhumerus -12.0593 -44.8547 109.277
lradius 35.1473
lwrist 49.7225
lhand -5.32201 59.5523
lfingers 7.12502
lthumb -159.516 268.492
rfemur -23.5396 -4.75287 13.4172
rtibia 22.1725
rfoot -7.81098 -16.9531
rtoes -0.712257
lfemur -29.8142 0.947415 -11.8407
ltibia 20.8408
lfoot -7.88403 -13.1648
ltoes -13.3229
504
root -11.1555 18.0639 6.199 -155.582 75.3606 -172.804
lowerback 3.01814 2.273 0.657895
upperback 3.64373 3.16804 5.00368
thorax 1.81185 1.61742 4.75242
lowerneck -12.1027 1.792 5.82893
upperneck 38.0969 4.88112 -3.95629
head 15.7184 3.0368 -1.74356
rclavicle -1.11319e-013 -8.90555e-014
rhumerus -8.668 9.27983 -100.314
rradius 31.7543
rwrist -42.7764
rhand -27.9183 -16.2546
rfingers 7.12502
rthumb -1.30701 -46.2303
lclavicle -1.11319e-013 -8.90555e-014
lhumerus -12.0667 -44.9331 109.273
lradius 35.1953
lwrist 49.7916
lhand -5.33928 59.5662
lfingers 7.12502
lthumb -159.533 268.507
rfemur -23.5387 -4.73291 13.3813
rtibia 22.1894
rfoot -7.88197 -16.9644
rtoes -0.374292
lfemur -29.8277 0.927024 -11.8653
ltibia 20.8508
lfoot -7.90222 -13.1425
ltoes -13.5162
505
root -11.1552 18.0648 6.19973 -155.552 75.3543 -172.74
lowerback 3.05314 2.28032 0.691101
upperback 3.64572 3.17986 5.00019
thorax 1.79531 1.62443 4.72814
lowerneck -12.1137 1.83162 5.98819
upperneck 38.0517 4.94995 -4.12113
head 15.7144 3.0648 -1.83129
rclavicle 1.51076e-014 -2.70347e-014
rhumerus -8.65573 9.16538 -100.298
rradius 31.7172
rwrist -42.6208
rhand -27.8101 -16.3057
rfingers 7.12502
rthumb -1.20247 -46.2821
lclavicle 1.51076e-014 -2.70347e-014
lhumerus -12.0999 -45.0384 109.283
lradius 35.2274
lwrist 49.8142
lhand -5.47329 59.6075
lfingers 7.12502
lthumb -159.661 268.562
rfemur -23.4939 -4.67211 13.3858
rtibia 22.185
rfoot -7.97914 -16.987
rtoes -0.088191
lfemur -29.7894 0.875948 -11.8269
ltibia 20.8544
lfoot -7.96967 -13.0473
ltoes -13.9078
506
root -11.154 18.0653 6.20104 -155.594 75.3913 -172.752
lowerback 3.07693 2.29533 0.677061
upperback 3.65342 3.19976 4.9827
thorax 1.78861 1.63406 4.71643
lowerneck -12.1257 1.87521 6.12466
upperneck 38.0103 5.01277 -4.23848
head 15.71 3.093 -1.89552
rclavicle 9.54166e-015 -1.74931e-014
rhumerus -8.6283 9.00762 -100.302
rradius 31.6709
rwrist -42.4022
rhand -27.5895 -16.4058
rfingers 7.12502
rthumb -0.989407 -46.3833
lclavicle 9.54166e-015 -1.74931e-014
lhumerus -12.123 -45.0675 109.29
lradius 35.2462
lwrist 49.7938
lhand -5.53585 59.6637
lfingers 7.12502
lthumb -159.722 268.625
rfemur -23.4537 -4.68818 13.3859
rtibia 22.1518
rfoot -7.98158 -16.9722
rtoes -0.355075
lfemur -29.7436 0.856596 -11.8291
ltibia 20.8708
lfoot -7.99702 -12.9665
ltoes -13.9417
507
root -11.153 18.066 6.20061 -155.698 75.3928 -172.823
lowerback 3.09469 2.28385 0.655215
upperback 3.67116 3.18444 4.98292
thorax 1.79704 1.62588 4.72912
lowerneck -12.1293 1.93288 6.2181
upperneck 37.9464 5.09799 -4.33824
head 15.6922 3.1255 -1.94074
rclavicle 7.31528e-014 7.95139e-015
rhumerus -8.63748 9.0314 -100.31
rradius 31.6971
rwrist -42.4625
rhand -27.6332 -16.4298
rfingers 7.12502
rthumb -1.03165 -46.4071
lclavicle 7.31528e-014 7.95139e-015
lhumerus -12.1172 -45.0578 109.279
lradius 35.2781
lwrist 49.7696
lhand -5.53951 59.6989
lfingers 7.12502
lthumb -159.725 268.661
rfemur -23.4041 -4.72137 13.3735
rtibia 22.119
rfoot -7.89991 -16.9706
rtoes -0.472837
lfemur -29.7116 0.753797 -11.8249
ltibia 20.8935
lfoot -7.97809 -12.8877
ltoes -13.723
508
root -11.1532 18.069 6.19775 -155.702 75.3651 -172.806
lowerback 3.1007 2.26678 0.714826
upperback 3.68232 3.16316 4.98356
thorax 1.80992 1.61666 4.69678
lowerneck -12.179 1.97849 6.29234
upperneck 37.9323 5.17482 -4.4363
head 15.7096 3.15296 -1.98281
rclavicle -7.95139e-015 -6.67916e-014
rhumerus -8.65843 9.09633 -100.315
rradius 31.739
rwrist -42.5829
rhand -27.729 -16.4126
rfingers 7.12502
rthumb -1.12415 -46.3894
lclavicle -7.95139e-015 -6.67916e-014
lhumerus -12.1052 -45.0593 109.261
lradius 35.2847
lwrist 49.7388
lhand -5.45606 59.6772
lfingers 7.12502
lthumb -159.645 268.63
rfemur -23.3783 -4.83117 13.398
rtibia 22.1094
rfoot -7.90117 -16.8836
rtoes -0.458327
lfemur -29.7035 0.670205 -11.7989
ltibia 20.9006
lfoot -7.97141 -12.894
ltoes -13.6556
509
root -11.1543 18.0702 6.19903 -155.518 75.3376 -172.677
lowerback 3.05231 2.27495 0.789539
upperback 3.65681 3.17355 4.96801
thorax 1.81454 1.62335 4.63956
lowerneck -12.2522 1.99269 6.39868
upperneck 37.9618 5.21371 -4.56281
head 15.7539 3.16747 -2.04917
rclavicle 1.35174e-014 1.59028e-015
rhumerus -8.67139 9.02233 -100.342
rradius 31.7673
rwrist -42.5692
rhand -27.7446 -16.4331
rfingers 7.12502
rthumb -1.13922 -46.4099
lclavicle 1.35174e-014 1.59028e-015
lhumerus -12.1517 -45.1755 109.256
lradius 35.3017
lwrist 49.7497
lhand -5.40937 59.6371
lfingers 7.12502
lthumb -159.6 268.586
rfemur -23.4481 -4.92125 13.4658
rtibia 22.1131
rfoot -7.9766 -16.7895
rtoes -0.329497
lfemur -29.7761 0.740737 -11.7721
ltibia 20.8862
lfoot -8.00454 -12.975
ltoes -13.9204
